<?xml version="1.0" standalone="no"?>
<!DOCTYPE svg PUBLIC "-//W3C//DTD SVG 20010904//EN"
 "http://www.w3.org/TR/2001/REC-SVG-20010904/DTD/svg10.dtd">
<svg version="1.0" xmlns="http://www.w3.org/2000/svg"
 width="500.000000pt" height="500.000000pt" viewBox="0 0 500.000000 500.000000"
 preserveAspectRatio="xMidYMid meet">

<g transform="translate(0.000000,500.000000) scale(0.100000,-0.100000)"
fill="#000000" stroke="none">
<path d="M3196 4989 c-90 -22 -178 -81 -297 -199 -178 -175 -250 -301 -311
-540 -54 -211 -38 -387 38 -437 65 -42 174 -11 309 89 275 205 445 530 449
858 1 88 -3 113 -21 152 -33 72 -87 97 -167 77z"/>
<path d="M1655 4296 c-30 -13 -55 -51 -55 -85 0 -72 147 -251 266 -324 120
-73 321 -120 411 -97 67 16 83 34 83 89 0 109 -163 288 -332 365 -134 62 -299
85 -373 52z"/>
<path d="M2285 3558 c-243 -27 -544 -146 -743 -292 -358 -264 -586 -646 -648
-1084 -21 -153 -14 -393 16 -537 78 -372 273 -692 560 -924 160 -129 322 -218
504 -277 114 -37 143 -71 176 -203 26 -105 45 -140 101 -181 57 -41 107 -53
212 -53 78 1 95 4 153 33 81 40 113 86 137 195 11 47 29 93 47 120 25 36 37
45 82 55 239 57 509 206 695 384 265 253 424 543 484 886 28 157 28 408 0 570
-107 617 -583 1123 -1201 1274 -181 44 -383 56 -575 34z m475 -383 c431 -103
768 -410 904 -826 43 -132 60 -241 60 -396 1 -104 -2 -125 -17 -140 -17 -17
-74 -18 -1073 -21 -985 -3 -1055 -4 -1050 -20 3 -9 10 -37 16 -62 43 -164 162
-344 306 -459 277 -224 675 -268 1002 -111 110 52 162 89 253 177 42 40 86 73
96 73 22 0 124 -63 191 -117 61 -50 58 -74 -22 -163 -281 -313 -758 -460
-1197 -369 -427 88 -781 396 -923 806 -51 150 -67 245 -67 413 0 215 39 382
132 565 123 241 359 465 606 575 97 43 246 86 346 100 114 16 311 5 437 -25z"/>
<path d="M2360 2869 c-78 -10 -217 -52 -285 -86 -227 -115 -415 -342 -475
-573 -6 -25 -13 -53 -16 -62 -5 -17 42 -18 896 -18 l902 0 -7 33 c-35 161
-148 355 -276 473 -138 126 -321 210 -510 234 -94 11 -135 11 -229 -1z"/>
</g>
</svg>
