<svg xmlns="http://www.w3.org/2000/svg" xmlns:xlink="http://www.w3.org/1999/xlink" width="2000" zoomAndPan="magnify" viewBox="0 0 1500 1499.999933" height="2000" preserveAspectRatio="xMidYMid meet" version="1.0"><defs><clipPath id="999ea2b6b4"><path d="M 283.503906 220 L 1216.503906 220 L 1216.503906 1280 L 283.503906 1280 Z M 283.503906 220 " clip-rule="nonzero"/></clipPath><clipPath id="7112a0e395"><path d="M 283.503906 220 L 485 220 L 485 463 L 283.503906 463 Z M 283.503906 220 " clip-rule="nonzero"/></clipPath></defs><g clip-path="url(#999ea2b6b4)"><path fill="#000000" d="M 1174.820312 814.199219 C 1153.871094 779.296875 1127.101562 750.789062 1095.707031 729.679688 C 1117.429688 712.753906 1135.546875 693.101562 1149.851562 670.832031 C 1173.898438 633.339844 1186.117188 590.367188 1186.117188 543.101562 C 1186.117188 341.167969 1041.9375 220.574219 800.464844 220.574219 L 570.238281 220.574219 L 570.238281 462.425781 L 670.136719 462.425781 L 670.136719 463.144531 L 817.796875 463.144531 C 913.488281 463.144531 921.421875 506.257812 921.421875 535.371094 C 921.421875 552.363281 938.753906 616.011719 817.796875 616.011719 L 767.234375 616.011719 L 767.234375 852.953125 L 840.507812 852.953125 C 903.675781 852.953125 951.730469 881.835938 951.730469 942.722656 C 951.730469 1021.757812 855.972656 1032.519531 840.507812 1032.519531 L 484.546875 1032.519531 L 484.546875 547.570312 L 283.460938 547.570312 L 283.460938 1279.308594 L 800.464844 1279.308594 C 922.582031 1279.308594 1019.734375 1256.117188 1089.171875 1210.382812 C 1173.617188 1154.796875 1216.429688 1068.035156 1216.429688 952.59375 C 1216.429688 909.417969 1200.867188 857.6875 1174.820312 814.199219 " fill-opacity="1" fill-rule="nonzero"/></g><g clip-path="url(#7112a0e395)"><path fill="#61a6ab" d="M 484.546875 220.574219 L 484.546875 462.425781 L 283.460938 462.425781 L 283.460938 220.574219 L 484.546875 220.574219 " fill-opacity="1" fill-rule="nonzero"/></g></svg>