<svg xmlns="http://www.w3.org/2000/svg" xmlns:xlink="http://www.w3.org/1999/xlink" width="2000" zoomAndPan="magnify" viewBox="0 0 1500 374.999991" height="500" preserveAspectRatio="xMidYMid meet" version="1.0"><defs><g/></defs><g fill="#000000" fill-opacity="1"><g transform="translate(84.840716, 307.696151)"><g><path d="M 61.65625 -254.03125 C 62.894531 -254.03125 64.644531 -253.414062 66.90625 -252.1875 C 69.164062 -250.957031 70.296875 -247.976562 70.296875 -243.25 L 70.296875 -10.484375 C 70.296875 -5.753906 69.164062 -2.769531 66.90625 -1.53125 C 64.644531 -0.300781 62.894531 0.3125 61.65625 0.3125 L 33.296875 0.3125 C 32.066406 0.3125 30.316406 -0.300781 28.046875 -1.53125 C 25.785156 -2.769531 24.65625 -5.753906 24.65625 -10.484375 L 24.65625 -243.25 C 24.65625 -247.976562 25.785156 -250.957031 28.046875 -252.1875 C 30.316406 -253.414062 32.066406 -254.03125 33.296875 -254.03125 Z M 61.65625 -254.03125 "/></g></g></g><g fill="#000000" fill-opacity="1"><g transform="translate(156.672769, 307.696151)"><g><path d="M 238 -175.421875 C 238 -155.890625 232.863281 -140.988281 222.59375 -130.71875 C 233.894531 -120.4375 239.546875 -105.125 239.546875 -84.78125 L 239.546875 -64.125 C 239.546875 -59.394531 239.335938 -54.820312 238.921875 -50.40625 C 238.515625 -45.988281 237.898438 -41.828125 237.078125 -37.921875 C 236.253906 -34.015625 235.175781 -30.363281 233.84375 -26.96875 C 232.507812 -23.582031 230.8125 -20.453125 228.75 -17.578125 C 225.257812 -12.023438 220.125 -7.601562 213.34375 -4.3125 C 207.175781 -1.226562 199.46875 0.3125 190.21875 0.3125 L 51.484375 0.3125 C 46.753906 0.3125 42.28125 -0.867188 38.0625 -3.234375 C 33.851562 -5.597656 30.519531 -8.835938 28.0625 -12.953125 C 26.414062 -15.828125 25.28125 -19.007812 24.65625 -22.5 L 24.96875 -233.078125 C 25.382812 -234.304688 25.847656 -235.585938 26.359375 -236.921875 C 26.867188 -238.265625 27.4375 -239.550781 28.0625 -240.78125 C 32.988281 -248.789062 40.078125 -253.109375 49.328125 -253.734375 L 49.328125 -254.03125 L 185.59375 -254.03125 C 204.5 -254.03125 217.960938 -248.789062 225.984375 -238.3125 C 233.992188 -228.238281 238 -213.03125 238 -192.6875 Z M 69.984375 -47.171875 C 69.984375 -46.554688 70.035156 -46.144531 70.140625 -45.9375 C 70.242188 -45.726562 70.296875 -45.625 70.296875 -45.625 L 177.578125 -45.625 C 183.742188 -45.625 188.0625 -46.960938 190.53125 -49.640625 C 193 -52.515625 194.234375 -57.445312 194.234375 -64.4375 L 194.234375 -85.390625 C 194.234375 -91.972656 192.894531 -96.910156 190.21875 -100.203125 C 187.34375 -103.484375 182 -105.125 174.1875 -105.125 L 114.375 -105.125 C 111.707031 -105.125 109.34375 -106.097656 107.28125 -108.046875 C 105.226562 -110.003906 104.203125 -112.421875 104.203125 -115.296875 L 104.203125 -140.578125 C 104.203125 -143.460938 105.226562 -145.878906 107.28125 -147.828125 C 109.34375 -149.773438 111.707031 -150.75 114.375 -150.75 L 174.1875 -150.75 C 182.207031 -150.75 187.445312 -152.191406 189.90625 -155.078125 C 192.582031 -157.953125 193.921875 -162.472656 193.921875 -168.640625 L 193.921875 -189.90625 C 193.921875 -196.6875 192.6875 -201.414062 190.21875 -204.09375 C 187.75 -206.96875 183.535156 -208.40625 177.578125 -208.40625 L 70.59375 -208.40625 C 70.1875 -208.40625 69.984375 -207.789062 69.984375 -206.5625 Z M 69.984375 -47.171875 "/></g></g></g><g fill="#61a6ab" fill-opacity="1"><g transform="translate(397.76648, 307.696151)"><g><path d="M 234.609375 -231.53125 C 240.566406 -224.132812 244.988281 -214.0625 247.875 -201.3125 C 249.101562 -195.351562 250.078125 -188.675781 250.796875 -181.28125 C 251.515625 -173.882812 251.875 -165.972656 251.875 -157.546875 L 251.875 -96.5 C 251.875 -87.863281 251.515625 -79.84375 250.796875 -72.4375 C 250.078125 -65.039062 249.101562 -58.363281 247.875 -52.40625 C 244.988281 -39.875 240.566406 -29.703125 234.609375 -21.890625 C 228.242188 -13.867188 220.226562 -8.21875 210.5625 -4.9375 C 200.695312 -1.4375 189.085938 0.3125 175.734375 0.3125 L 100.5 0.3125 C 86.9375 0.3125 75.425781 -1.4375 65.96875 -4.9375 C 56.3125 -8.21875 48.296875 -13.972656 41.921875 -22.203125 C 35.753906 -30.210938 31.335938 -40.28125 28.671875 -52.40625 C 27.234375 -58.363281 26.203125 -65.039062 25.578125 -72.4375 C 24.960938 -79.84375 24.65625 -87.863281 24.65625 -96.5 L 24.65625 -157.546875 C 24.65625 -175.210938 25.992188 -189.800781 28.671875 -201.3125 C 31.335938 -213.4375 35.753906 -223.507812 41.921875 -231.53125 C 48.296875 -239.34375 56.3125 -245.097656 65.96875 -248.796875 C 75.84375 -252.285156 87.351562 -254.03125 100.5 -254.03125 L 175.734375 -254.03125 C 189.085938 -254.03125 200.695312 -252.285156 210.5625 -248.796875 C 220.226562 -245.097656 228.242188 -239.34375 234.609375 -231.53125 Z M 205.9375 -162.78125 C 205.9375 -167.300781 205.832031 -171.460938 205.625 -175.265625 C 205.425781 -179.066406 205.019531 -182.507812 204.40625 -185.59375 C 203.582031 -191.351562 201.832031 -195.976562 199.15625 -199.46875 C 197.101562 -202.34375 194.019531 -204.601562 189.90625 -206.25 C 187.851562 -206.863281 185.539062 -207.375 182.96875 -207.78125 C 180.40625 -208.195312 177.476562 -208.40625 174.1875 -208.40625 L 102.046875 -208.40625 C 98.753906 -208.40625 95.820312 -208.195312 93.25 -207.78125 C 90.6875 -207.375 88.378906 -206.863281 86.328125 -206.25 C 82.210938 -204.601562 79.128906 -202.34375 77.078125 -199.46875 C 75.835938 -197.820312 74.804688 -195.816406 73.984375 -193.453125 C 73.171875 -191.085938 72.453125 -188.46875 71.828125 -185.59375 C 71.421875 -182.507812 71.0625 -179.066406 70.75 -175.265625 C 70.445312 -171.460938 70.296875 -167.300781 70.296875 -162.78125 L 70.296875 -90.953125 C 70.296875 -86.429688 70.445312 -82.269531 70.75 -78.46875 C 71.0625 -74.664062 71.421875 -71.222656 71.828125 -68.140625 C 72.453125 -65.460938 73.171875 -62.941406 73.984375 -60.578125 C 74.804688 -58.210938 75.835938 -56.207031 77.078125 -54.5625 C 79.128906 -51.28125 82.210938 -49.019531 86.328125 -47.78125 C 90.023438 -46.34375 95.265625 -45.625 102.046875 -45.625 L 174.1875 -45.625 C 180.96875 -45.625 186.207031 -46.34375 189.90625 -47.78125 C 194.019531 -49.019531 197.101562 -51.28125 199.15625 -54.5625 C 201.625 -57.644531 203.375 -62.171875 204.40625 -68.140625 C 205.019531 -71.222656 205.425781 -74.664062 205.625 -78.46875 C 205.832031 -82.269531 205.9375 -86.429688 205.9375 -90.953125 Z M 205.9375 -162.78125 "/></g></g></g><g fill="#61a6ab" fill-opacity="1"><g transform="translate(651.183971, 307.696151)"><g><path d="M 234.609375 -231.53125 C 240.566406 -224.132812 244.988281 -214.0625 247.875 -201.3125 C 249.101562 -195.351562 250.078125 -188.675781 250.796875 -181.28125 C 251.515625 -173.882812 251.875 -165.972656 251.875 -157.546875 L 251.875 -96.5 C 251.875 -87.863281 251.515625 -79.84375 250.796875 -72.4375 C 250.078125 -65.039062 249.101562 -58.363281 247.875 -52.40625 C 244.988281 -39.875 240.566406 -29.703125 234.609375 -21.890625 C 228.242188 -13.867188 220.226562 -8.21875 210.5625 -4.9375 C 200.695312 -1.4375 189.085938 0.3125 175.734375 0.3125 L 100.5 0.3125 C 86.9375 0.3125 75.425781 -1.4375 65.96875 -4.9375 C 56.3125 -8.21875 48.296875 -13.972656 41.921875 -22.203125 C 35.753906 -30.210938 31.335938 -40.28125 28.671875 -52.40625 C 27.234375 -58.363281 26.203125 -65.039062 25.578125 -72.4375 C 24.960938 -79.84375 24.65625 -87.863281 24.65625 -96.5 L 24.65625 -157.546875 C 24.65625 -175.210938 25.992188 -189.800781 28.671875 -201.3125 C 31.335938 -213.4375 35.753906 -223.507812 41.921875 -231.53125 C 48.296875 -239.34375 56.3125 -245.097656 65.96875 -248.796875 C 75.84375 -252.285156 87.351562 -254.03125 100.5 -254.03125 L 175.734375 -254.03125 C 189.085938 -254.03125 200.695312 -252.285156 210.5625 -248.796875 C 220.226562 -245.097656 228.242188 -239.34375 234.609375 -231.53125 Z M 205.9375 -162.78125 C 205.9375 -167.300781 205.832031 -171.460938 205.625 -175.265625 C 205.425781 -179.066406 205.019531 -182.507812 204.40625 -185.59375 C 203.582031 -191.351562 201.832031 -195.976562 199.15625 -199.46875 C 197.101562 -202.34375 194.019531 -204.601562 189.90625 -206.25 C 187.851562 -206.863281 185.539062 -207.375 182.96875 -207.78125 C 180.40625 -208.195312 177.476562 -208.40625 174.1875 -208.40625 L 102.046875 -208.40625 C 98.753906 -208.40625 95.820312 -208.195312 93.25 -207.78125 C 90.6875 -207.375 88.378906 -206.863281 86.328125 -206.25 C 82.210938 -204.601562 79.128906 -202.34375 77.078125 -199.46875 C 75.835938 -197.820312 74.804688 -195.816406 73.984375 -193.453125 C 73.171875 -191.085938 72.453125 -188.46875 71.828125 -185.59375 C 71.421875 -182.507812 71.0625 -179.066406 70.75 -175.265625 C 70.445312 -171.460938 70.296875 -167.300781 70.296875 -162.78125 L 70.296875 -90.953125 C 70.296875 -86.429688 70.445312 -82.269531 70.75 -78.46875 C 71.0625 -74.664062 71.421875 -71.222656 71.828125 -68.140625 C 72.453125 -65.460938 73.171875 -62.941406 73.984375 -60.578125 C 74.804688 -58.210938 75.835938 -56.207031 77.078125 -54.5625 C 79.128906 -51.28125 82.210938 -49.019531 86.328125 -47.78125 C 90.023438 -46.34375 95.265625 -45.625 102.046875 -45.625 L 174.1875 -45.625 C 180.96875 -45.625 186.207031 -46.34375 189.90625 -47.78125 C 194.019531 -49.019531 197.101562 -51.28125 199.15625 -54.5625 C 201.625 -57.644531 203.375 -62.171875 204.40625 -68.140625 C 205.019531 -71.222656 205.425781 -74.664062 205.625 -78.46875 C 205.832031 -82.269531 205.9375 -86.429688 205.9375 -90.953125 Z M 205.9375 -162.78125 "/></g></g></g><g fill="#000000" fill-opacity="1"><g transform="translate(904.602384, 307.696151)"><g><path d="M 173.578125 -151.6875 C 189.609375 -151.6875 201.835938 -146.03125 210.265625 -134.71875 C 218.273438 -123.625 222.28125 -108.003906 222.28125 -87.859375 L 222.28125 -60.734375 C 222.28125 -43.054688 218.375 -28.566406 210.5625 -17.265625 C 202.550781 -5.753906 190.015625 0 172.953125 0 L 33.90625 0 C 32.46875 0 30.617188 -0.5625 28.359375 -1.6875 C 26.097656 -2.820312 24.96875 -5.753906 24.96875 -10.484375 L 24.96875 -35.140625 C 24.96875 -39.867188 26.097656 -42.796875 28.359375 -43.921875 C 30.617188 -45.054688 32.46875 -45.625 33.90625 -45.625 L 165.5625 -45.625 C 168.226562 -45.625 170.125 -46.085938 171.25 -47.015625 C 172.382812 -47.941406 173.257812 -48.816406 173.875 -49.640625 C 175.726562 -52.722656 176.65625 -57.035156 176.65625 -62.578125 L 176.65625 -89.09375 C 176.65625 -96.695312 175.421875 -101.421875 172.953125 -103.265625 C 170.484375 -105.117188 168.117188 -106.046875 165.859375 -106.046875 L 73.375 -106.046875 C 67 -106.046875 60.472656 -106.867188 53.796875 -108.515625 C 47.117188 -110.160156 41.414062 -114.171875 36.6875 -120.546875 C 28.664062 -131.847656 24.65625 -148.289062 24.65625 -169.875 L 24.65625 -193.296875 C 24.65625 -211.390625 28.664062 -225.984375 36.6875 -237.078125 C 44.695312 -248.378906 57.128906 -254.03125 73.984375 -254.03125 L 206.875 -254.03125 C 208.101562 -254.03125 209.847656 -253.460938 212.109375 -252.328125 C 214.367188 -251.203125 215.5 -248.273438 215.5 -243.546875 L 215.5 -218.890625 C 215.5 -214.160156 214.367188 -211.226562 212.109375 -210.09375 C 209.847656 -208.96875 208.101562 -208.40625 206.875 -208.40625 L 81.390625 -208.40625 C 78.710938 -208.40625 76.804688 -207.992188 75.671875 -207.171875 C 74.546875 -206.347656 73.675781 -205.425781 73.0625 -204.40625 C 71.414062 -201.113281 70.59375 -196.796875 70.59375 -191.453125 L 70.59375 -168.640625 C 70.59375 -161.035156 71.773438 -156.304688 74.140625 -154.453125 C 76.503906 -152.609375 78.816406 -151.6875 81.078125 -151.6875 Z M 173.578125 -151.6875 "/></g></g></g><g fill="#000000" fill-opacity="1"><g transform="translate(1128.423654, 307.696151)"><g><path d="M 237.703125 -254.03125 C 239.140625 -254.03125 240.988281 -253.460938 243.25 -252.328125 C 245.507812 -251.203125 246.640625 -248.273438 246.640625 -243.546875 L 246.640625 -219.5 C 246.640625 -214.363281 245.507812 -211.226562 243.25 -210.09375 C 240.988281 -208.96875 239.140625 -208.40625 237.703125 -208.40625 L 158.46875 -208.40625 L 158.46875 -10.484375 C 158.46875 -5.753906 157.382812 -2.820312 155.21875 -1.6875 C 153.0625 -0.5625 151.265625 0 149.828125 0 L 121.46875 0 C 120.238281 0 118.492188 -0.5625 116.234375 -1.6875 C 113.972656 -2.820312 112.84375 -5.753906 112.84375 -10.484375 L 112.84375 -208.40625 L 33.609375 -208.40625 C 32.171875 -208.40625 30.316406 -208.96875 28.046875 -210.09375 C 25.785156 -211.226562 24.65625 -214.363281 24.65625 -219.5 L 24.65625 -243.546875 C 24.65625 -248.273438 25.785156 -251.203125 28.046875 -252.328125 C 30.316406 -253.460938 32.171875 -254.03125 33.609375 -254.03125 Z M 237.703125 -254.03125 "/></g></g></g></svg>