<?xml version="1.0" standalone="no"?>
<!DOCTYPE svg PUBLIC "-//W3C//DTD SVG 20010904//EN"
 "http://www.w3.org/TR/2001/REC-SVG-20010904/DTD/svg10.dtd">
<svg version="1.0" xmlns="http://www.w3.org/2000/svg"
 width="2000.000000pt" height="2000.000000pt" viewBox="0 0 2000.000000 2000.000000"
 preserveAspectRatio="xMidYMid meet">

<g transform="translate(0.000000,2000.000000) scale(0.100000,-0.100000)"
fill="#000000" stroke="none">
<path d="M3380 18164 c-302 -36 -490 -77 -748 -166 -341 -116 -652 -289 -952
-526 -129 -103 -397 -373 -496 -502 -371 -479 -589 -1010 -659 -1605 -20 -171
-20 -538 0 -710 68 -591 289 -1128 659 -1605 101 -131 369 -401 499 -504 478
-379 1010 -602 1625 -680 166 -21 558 -22 719 -1 235 31 423 72 620 136 909
296 1634 982 1979 1875 77 200 139 440 179 694 22 139 32 588 16 743 -75 723
-372 1370 -865 1884 -489 509 -1110 832 -1818 944 -109 18 -186 22 -428 24
-162 2 -311 1 -330 -1z"/>
<path d="M15515 18149 c-242 -22 -558 -93 -790 -179 -591 -220 -1109 -620
-1457 -1125 -65 -94 -6117 -10372 -6194 -10520 -185 -353 -296 -734 -335
-1149 -16 -177 -6 -531 20 -701 127 -829 550 -1539 1208 -2027 416 -309 910
-511 1423 -583 63 -9 212 -19 332 -22 738 -19 1426 214 2018 683 113 90 357
336 451 454 134 169 199 272 671 1075 256 435 1618 2750 3029 5145 1526 2592
2598 4424 2649 4525 166 331 266 674 306 1050 21 200 14 563 -14 750 -88 566
-300 1053 -651 1495 -96 122 -339 364 -461 461 -479 381 -1070 618 -1663 668
-147 13 -396 12 -542 0z"/>
</g>
</svg>
